<?xml version="1.0" encoding="UTF-8" standalone="no"?>
<!-- Generator: Adobe Illustrator 15.0.0, SVG Export Plug-In . SVG Version: 6.00 Build 0)  -->

<svg
   xmlns:dc="http://purl.org/dc/elements/1.1/"
   xmlns:cc="http://creativecommons.org/ns#"
   xmlns:rdf="http://www.w3.org/1999/02/22-rdf-syntax-ns#"
   xmlns:svg="http://www.w3.org/2000/svg"
   xmlns="http://www.w3.org/2000/svg"
   xmlns:sodipodi="http://sodipodi.sourceforge.net/DTD/sodipodi-0.dtd"
   xmlns:inkscape="http://www.inkscape.org/namespaces/inkscape"
   version="1.1"
   id="Layer_1"
   x="0px"
   y="0px"
   width="595.28px"
   height="841.89px"
   viewBox="0 0 595.28 841.89"
   enable-background="new 0 0 595.28 841.89"
   xml:space="preserve"
   inkscape:version="0.47 r22583"
   sodipodi:docname="L_Architetto_pensieroso.svg"><metadata
   id="metadata9"><rdf:RDF><cc:Work
       rdf:about=""><dc:format>image/svg+xml</dc:format><dc:type
         rdf:resource="http://purl.org/dc/dcmitype/StillImage" /><dc:title></dc:title><dc:creator><cc:Agent><dc:title>Arch. Emilie Rollandin</dc:title></cc:Agent></dc:creator><cc:license
         rdf:resource="http://creativecommons.org/licenses/by/3.0/" /></cc:Work><cc:License
       rdf:about="http://creativecommons.org/licenses/by/3.0/"><cc:permits
         rdf:resource="http://creativecommons.org/ns#Reproduction" /><cc:permits
         rdf:resource="http://creativecommons.org/ns#Distribution" /><cc:requires
         rdf:resource="http://creativecommons.org/ns#Notice" /><cc:requires
         rdf:resource="http://creativecommons.org/ns#Attribution" /><cc:permits
         rdf:resource="http://creativecommons.org/ns#DerivativeWorks" /></cc:License></rdf:RDF></metadata><defs
   id="defs7"><inkscape:perspective
     sodipodi:type="inkscape:persp3d"
     inkscape:vp_x="0 : 420.94501 : 1"
     inkscape:vp_y="0 : 1000 : 0"
     inkscape:vp_z="595.28003 : 420.94501 : 1"
     inkscape:persp3d-origin="297.64001 : 280.63 : 1"
     id="perspective11" /></defs><sodipodi:namedview
   pagecolor="#ffffff"
   bordercolor="#666666"
   borderopacity="1"
   objecttolerance="10"
   gridtolerance="10"
   guidetolerance="10"
   inkscape:pageopacity="0"
   inkscape:pageshadow="2"
   inkscape:window-width="683"
   inkscape:window-height="488"
   id="namedview5"
   showgrid="false"
   inkscape:zoom="0.28032165"
   inkscape:cx="297.64001"
   inkscape:cy="420.94501"
   inkscape:window-x="0"
   inkscape:window-y="0"
   inkscape:window-maximized="0"
   inkscape:current-layer="Layer_1" />
<path
   fill="#010202"
   d="M432.389,275.194l0.446-5.24l0.854-7.633l-0.435-4.415l0.435-6.844l-3.522-10.06l-0.412-18.893  l-4.408-32.598l-10.951-32.971l-7.013-17.691l-7.924-5.196l-0.323-0.487l0.14,0.35l-4.17-2.723l-26.063-5.579l-34.242-1.554  l-7.018-5.142l-7.178-3.933l-3.521-2.28l-2.996,0.488l-0.796-1.261l-3.902-4.628l-4.236-1.082l-0.637-13.925l2.934,1.797  l3.102-1.074l4.686-4.288l1.15-4.47l0.405-6.772l-2.357-6.789l-0.367-5.702l-0.412-1.079l-2.005-0.545l0.057,0.368l-0.573-2.697  l-1.344-4.083l-1.169-4.825l2.129,1.774l-1.361-3.55l-0.384-2.143l0.189-3.042l-1.381-3.755l-1.346-2.668  c0,0-1.356-3.558-1.952-4.123c-0.567-0.522-2.315-2.477-3.694-4.625c-1.358-2.127-6.224-5.168-6.224-5.168l-10.131-4.29  l-5.658-1.953l-3.682-1.784l-11.467,1.247l-13.639,1.23l-4.881,1.083l-7.192,4.815l-3.313,4.112l0.196,2.132l0.177,1.427  l-3.678,0.892c0,0-2.325,3.048-2.325,3.56c0,0.564-3.124,10.01-3.124,10.01l0.786,10.719l0.189,6.963l1.353-0.713l0.396,1.952  l0.58,4.994l2.063,3.402h-3.416l-0.976,2.677l1.75,4.076l1.951,8.236l-0.396,7.134l4.084,5.361l4.499,0.181l0.95-0.181l4.086,6.444  l1.164,2.292l-5.25,4.468l-2.135,3.21l-3.314-3.21l-4.267-0.893l-1.942,3.568l1.333,5.343l0.609,3.051l-4.096,5.186l-7.584,8.744  l-7.411,18.384l-5.252,8.191l1.15-1.796l-1.191,0.292l-4.822,6.049h-3.947l-1.743,7.229v5.238l-9.662,17.684l0.88,4.825l-5.265,4.43  l-3.063,7.24l-5.706,13.262l-4.812,4.026l-1.765,8.444l-3.969,8.44l2.661,7.653v7.643l-0.45,13.672l2.195,6.442l2.187,6.02  l7.463,2.825l7.898,2.027h11.408l8.319-2.027l2.643-4.018l10.081-9.25l4.834-2.825l-0.457,9.241l-0.88,17.295l-3.932,20.526  l-0.181,0.404l-2.157,2.741l0.624,0.725l-2.233,4.976l-2.193,7.24l-6.576,39.404l0.877,4.426l-1.758,20.113l-1.755,28.588  l-0.893,14.857l1.767,2.006l7.452,3.233l6.599,2.791l-0.269-0.107l6.412,31.269l3.928,25.166l5.269,4.432l5.278,15.66l-1.343,39.837  l0.456,16.097l1.318,1.2l4.615,7.284l7.901,138.113l-1.559,4.607c0,0-2.186,5.235-2.614,6.456  c-0.453,1.203-3.522,13.257-3.522,13.257l9.215,2.016l-8.861-1.939l-2.446,2.274l-9.338,5.672l-8.18,5.348l-10.119,3.589  l-6.215,1.45l-9.333-0.395l-2.329,2.16l-1.168,6.757l0.393,3.567l-1.56,3.219l2.335,1.438l16.334,2.126l31.908-0.354l12.042-2.836  l9.335-6.084l0.393,2.492l26.066,0.738l17.88-3.59l0.393-9.991l-1.162-1.765l1.947-2.521l-0.373-12.104l-0.805-1.109l-6.26-2.167  l7.011,2.414l-0.868-6.02l-2.189-7.249l-3.507-4.84l1.289-4.004l1.337-33.409l-0.805-6.501l0.064-0.128l-0.064,0.055l-0.532-4.265  l3.533-9.665l1.302-13.261l3.079,16.502v12.868l-0.871,10.441l2.629,14.896l10.527,33.392l0.884,9.24l3.488,7.251l2.654,3.625  l4.262-1.806l-0.9,6.572v9.254l-1.938,3.929v10.354l-1.173,2.157l0.394,4.258l6.994,3.219l14.789,2.496l22.179-1.806l11.294-6.741  l-0.802-5.034l0.39-6.044l-4.65-7.496l1.159-12.114l-2.266-4.34l-8.068,1.109l8.77-1.205l5.269-13.27l5.258-22.126l-0.438-20.113  l-1.307-4.831l3.075-6.815l-1.149-22.929l0.246,0.392l-0.266-0.792l-1.032-20.524l-6.591-23.741l-3.065-33.738l-3.069-8.079  l1.323-29.359l-1.323-15.287l-3.951-9.652l10.526-29.77l3.527-43.021l-0.444-37.828l-4.381-36.977l10.958-10.464l0.435-6.453  l2.638-0.394l1.325,3.222l14.455-25.733l-0.868-7.25l0.439-2.403l-0.439-14.488l4.828-5.231l2.534-3.783l0.52-0.235l-0.332-0.048  l0.785-1.156l2.193-9.671l2.623-6.019l-0.435-4.424l3.957-5.221l3.519-12.47l2.174-4.038L432.389,275.194z M257.149,143.518  l0.08,0.138l0.177,2.078l7.79,4.154l-9.336-4.977l-9.162-2.157l9.749,1.089L257.149,143.518z M258.178,133.497l-5.433,0.168  l-5.269,0.339l8.969-4.454l-0.507,0.264l-1.502,3.792L258.178,133.497z"
   id="path3" />
</svg>